<svg xmlns="http://www.w3.org/2000/svg" viewBox="0 0 717.62 233.66"><defs><style>.cls-1{fill:#f9b026;}.cls-2{fill:#fff;}</style></defs><g id="Capa_2" data-name="Capa 2"><g id="Capa_1-2" data-name="Capa 1"><g id="Capa_2-2" data-name="Capa 2"><g id="Capa_1-2-2" data-name="Capa 1-2"><path class="cls-1" d="M91.44,233.55c-21.28,0-41.83-3.32-60-17A86.24,86.24,0,0,1,.51,169.87c-1.55-5.19.57-6.85,4.57-7.63,8.82-1.71,17.59-3.37,26.36-5.19,4.1-.93,5.19,1.14,5.19,5.19,0,7.53.26,15.1,0,22.58,0,6.43,2.29,9.08,7.95,8.61h5.55c12.25,0,12.4,0,13.08-13.39.26-6.07,1.81-7.63,7.26-5.19,26.63,12.72,49.93,6.18,69.45-16.66a61.88,61.88,0,0,0,14.17-47.9c-.32-3-2.44-7.06.41-8.82s5.76,1.81,8.05,3.94c31.76,30,27.45,86-8.52,110.86A105,105,0,0,1,91.44,233.55Z"/><path class="cls-1" d="M94.19,0c24.29.26,47,5.45,65.45,24.5a74.41,74.41,0,0,1,16,25.53c2,5.19.58,8.25-4.41,9.6A51.82,51.82,0,0,0,163,62.28c-15,6.7-28,7.32-43.13-3.84-20.08-14.64-47.18-7.11-64.93,12a68.64,68.64,0,0,0-18.11,49.93c0,2.23,1.35,5.19-.88,6.43s-4.31-1-6.07-2.64A68.61,68.61,0,0,1,11.67,54.91a68.41,68.41,0,0,1,51.9-51A118.54,118.54,0,0,1,94.19,0Z"/><path class="cls-1" d="M96.11,81.64a32.64,32.64,0,0,1,31.73,33.53c0,.19,0,.38,0,.57-.51,20.76-14,35.91-32.28,35.76s-32.33-16-32.07-36S77,81.48,96.11,81.64Z"/><path class="cls-2" d="M379.85,215.91l1-1a12,12,0,0,0,9.14,4.25c4.87,0,8-2.69,8-6.53s-2.54-5.2-5.61-6.75l-4.72-2.13a8.37,8.37,0,0,1-6.18-7.47,7.74,7.74,0,0,1,8.14-7.31l.48,0a11.13,11.13,0,0,1,8.25,3.58l-.88,1a9.59,9.59,0,0,0-7.37-3.22c-4.26,0-7.11,2.29-7.11,5.76s3.17,5.19,5.19,6.18l4.67,2.13c3.37,1.55,6.49,3.32,6.49,8a8.46,8.46,0,0,1-8.85,8.05c-.22,0-.44,0-.65-.06A13.14,13.14,0,0,1,379.85,215.91Z"/><path class="cls-2" d="M430.77,215.91l1-1a12,12,0,0,0,9.14,4.25c4.88,0,8-2.69,8-6.53s-2.59-5.2-5.65-6.75l-4.68-2.13a8.3,8.3,0,0,1-6.17-7.47,7.72,7.72,0,0,1,8.12-7.32c.2,0,.4,0,.6.05a11.44,11.44,0,0,1,8.3,3.58l-.93,1a9.59,9.59,0,0,0-7.37-3.22c-4.26,0-7.11,2.29-7.11,5.76s3.22,5.19,5.19,6.18l4.72,2.13c3.37,1.55,6.44,3.32,6.44,8a8.46,8.46,0,0,1-8.88,8c-.12,0-.24,0-.36,0A12.91,12.91,0,0,1,430.77,215.91Z"/><path class="cls-2" d="M484.59,189.54h7.32c6.9,0,10.84,2.18,10.84,8.25s-3.84,8.67-10.69,8.67h-6V220h-1.5Zm7,15.57c6.54,0,9.66-2.07,9.66-7.37s-3.22-7-9.86-7h-5.19v14.38Z"/><path class="cls-2" d="M214.91,39.5h36.33c23.41,0,40.59,7.16,40.59,28a25.65,25.65,0,0,1-15.57,24.71v.67a26,26,0,0,1,21.9,27c0,22.79-18.68,33.43-43.75,33.43h-39.5Zm34.62,47c15.88,0,22.63-6.18,22.63-16.09,0-11-7.47-15.16-22.21-15.16H235.1V86.36Zm2.65,51.17c16.71,0,25.95-6,25.95-18.84,0-12-9.08-17.18-25.95-17.18H235.1v36Z"/><path class="cls-2" d="M305,39.5h68.72v17H325.15V85.64h41v17h-41v33.68h50.08v17H305Z"/><path class="cls-2" d="M407,39.5h23.77l37.16,113.87H446.34L429.11,92.75c-3.64-12-7-25-10.38-37.53H418c-3.11,12.61-6.44,25.49-10.07,37.53l-17.44,60.62H369.73Zm-15.21,67.16h53.67v15.83H391.79Z"/><path class="cls-2" d="M465.13,103.44V39.5h20.24v65.44c0,24.81,9.24,33,23,33s23.56-8.15,23.56-33V39.5h19.41v63.94c0,37.37-16.55,51.9-43,51.9S465.13,140.81,465.13,103.44Z"/><path class="cls-2" d="M588.86,56.47H556v-17H641.9v17H609.05v96.9H588.86Z"/><path class="cls-2" d="M663.23,111,629,39.5h21.59L663,68.61c3.32,8.46,6.54,16.35,10.38,25h.73c3.58-8.67,7.16-16.56,10.38-25l12.4-29.11h20.76L683.37,111v42.35H663.13Z"/></g></g></g></g></svg>